// TITAN PRO · V8 — Public favicon: simplified Corinthian helmet.

<svg xmlns="http://www.w3.org/2000/svg" viewBox="0 0 64 64">
  <defs>
    <linearGradient id="g1" x1="0" y1="0" x2="0" y2="1">
      <stop offset="0" stop-color="#1a1a1c"/>
      <stop offset="1" stop-color="#0a0a0a"/>
    </linearGradient>
    <linearGradient id="g2" x1="0" y1="0" x2="1" y2="1">
      <stop offset="0" stop-color="#e0c98a"/>
      <stop offset="1" stop-color="#8a6f3d"/>
    </linearGradient>
  </defs>
  <path d="M28 8 H36 V12 H28Z" fill="url(#g2)"/>
  <path d="M14 32 Q14 18 32 14 Q50 18 50 32 L50 38 L48 42 L16 42 L14 38 Z" fill="url(#g1)" stroke="url(#g2)" stroke-width="1.5"/>
  <path d="M14 32 Q10 38 10 46 Q12 52 18 54 Z" fill="url(#g1)" stroke="url(#g2)" stroke-width="1.2"/>
  <path d="M50 32 Q54 38 54 46 Q52 52 46 54 Z" fill="url(#g1)" stroke="url(#g2)" stroke-width="1.2"/>
  <rect x="20" y="30" width="24" height="6" fill="#0a0a0a" stroke="url(#g2)" stroke-width="0.6"/>
  <path d="M21 32 L26 31 L26 35 L21 34 Z" fill="#A50000"/>
  <path d="M43 32 L38 31 L38 35 L43 34 Z" fill="#A50000"/>
</svg>
